<svg id="Icons" height="512" viewBox="0 0 60 60" width="512" xmlns="http://www.w3.org/2000/svg"><path d="m58.41 55.59a1.955 1.955 0 0 1 .59 1.41 2.006 2.006 0 0 1 -2 2h-18a2.015 2.015 0 0 1 -2-2 2.006 2.006 0 0 1 2-2h2v-35h-2a2.015 2.015 0 0 1 -2-2 2.006 2.006 0 0 1 2-2h18a2.015 2.015 0 0 1 2 2 2.006 2.006 0 0 1 -2 2h-2v35h2a1.955 1.955 0 0 1 1.41.59z" fill="#e64c3c"/><path d="m33 10a3 3 0 0 1 -6 0 3 3 0 0 1 -6 0 3 3 0 0 1 -6 0 3 3 0 0 1 -6 0 3 3 0 0 1 -6 0v-2.39a1.965 1.965 0 0 1 .34-1.11l3.07-4.61a1.981 1.981 0 0 1 1.66-.89h25.86a1.981 1.981 0 0 1 1.66.89l3.07 4.61a1.965 1.965 0 0 1 .34 1.11v2.39a3 3 0 0 1 -6 0z" fill="#d1d4d1"/><path d="m33 1v9a3 3 0 0 1 -6 0v-9z" fill="#c03a2b"/><path d="m22 1-1 6v3a3 3 0 0 1 -6 0v-3l2-6z" fill="#c03a2b"/><path d="m12 1-3 6v3a3 3 0 0 1 -6 0v-2.39a1.965 1.965 0 0 1 .34-1.11l3.07-4.61a1.981 1.981 0 0 1 1.66-.89z" fill="#c03a2b"/><path d="m41 55v-16a2.006 2.006 0 0 0 -2-2h-36a2.006 2.006 0 0 0 -2 2v18a2.006 2.006 0 0 0 2 2h36z" fill="#cb8252"/><path d="m9 10v27h-4v-24.18z" fill="#a56a43"/><path d="m37 12.82v24.18h-4v-27z" fill="#a56a43"/><path d="m21 47a2 2 0 1 1 2-2 1 1 0 0 0 2 0 4 4 0 0 0 -3-3.858v-.142a1 1 0 0 0 -2 0v.142a3.992 3.992 0 0 0 1 7.858 2 2 0 1 1 -2 2 1 1 0 0 0 -2 0 4 4 0 0 0 3 3.858v.142a1 1 0 0 0 2 0v-.142a3.992 3.992 0 0 0 -1-7.858z" fill="#f0c419"/><path d="m28 37v-3a5 5 0 0 0 -4.41-4.96h-5.18a5 5 0 0 0 -4.41 4.96v3z" fill="#3b97d3"/><path d="m26 25a1.993 1.993 0 0 1 -1.08 1.77 3.994 3.994 0 0 1 -7.84 0 1.993 1.993 0 0 1 -.08-3.5v-1.27a4 4 0 1 1 8 0v1.27a2 2 0 0 1 1 1.73z" fill="#fdd7ad"/><path d="m57 55h-18a2 2 0 0 0 0 4h18a2 2 0 0 0 0-4z" fill="#c03a2b"/><path d="m57 16h-18a2 2 0 0 0 0 4h18a2 2 0 0 0 0-4z" fill="#c03a2b"/><g fill="#547580"><rect height="6" rx="1" width="6" x="45" y="24"/><path d="m50 35h-4a1 1 0 0 1 0-2h4a1 1 0 0 1 0 2z"/><path d="m50 39h-4a1 1 0 0 1 0-2h4a1 1 0 0 1 0 2z"/><path d="m50 43h-4a1 1 0 0 1 0-2h4a1 1 0 0 1 0 2z"/><path d="m50 47h-4a1 1 0 0 1 0-2h4a1 1 0 0 1 0 2z"/></g><path d="m39 7.61v2.39a3 3 0 0 1 -6 0v-3h5.9a1.815 1.815 0 0 1 .1.61z" fill="#ecf0f1"/><path d="m27 7v3a3 3 0 0 1 -6 0v-3z" fill="#ecf0f1"/><path d="m15 7v3a3 3 0 0 1 -6 0v-3z" fill="#ecf0f1"/><path d="m33 7v3a3 3 0 0 1 -6 0v-3z" fill="#e64c3c"/><path d="m21 7v3a3 3 0 0 1 -6 0v-3z" fill="#e64c3c"/><path d="m9 7v3a3 3 0 0 1 -6 0v-2.39a1.815 1.815 0 0 1 .1-.61z" fill="#e64c3c"/><path d="m25 22v1c-3 0-4-1-4-1-1 2-4 1-4 1v-1a4 4 0 1 1 8 0z" fill="#f0c419"/></svg>